# xmcd
#
# Track frame offsets: 
#        150
#        83827
#        131077
#        174182
#        268880
#        293425
#
# Disc length: 4571 seconds
#
# Revision: 0
# Processed by: cddbd v1.5.2PL0 Copyright (c) Steve Scherf et al.
# Submitted via: ExactAudioCopy v1.0b1
#
DISCID=4c11d906
DTITLE=Artur Rubinstein, Daniel Barenboim, London Philharmonic - Beeth
DTITLE=oven: Piano concertos nos. 3 and 4
DYEAR=1975
DGENRE=Classical
TTITLE0=Concerto, piano, no. 03, c minor   Allegro con brio  Op. 37
TTITLE1=Concerto, piano, no. 03, c minor   Largo  Op. 37
TTITLE2=Concerto, piano, no. 03, c minor   Rondo:  Allegro  Op. 37
TTITLE3=Concerto, piano, no. 04, G Major   Allegro moderato  Op. 58
TTITLE4=Concerto, piano, no. 04, G Major   Andante con moto  Op. 58
TTITLE5=Concerto, piano, no. 04, G Major   Rondo:  Vivace  Op. 58
EXTD=
EXTT0=
EXTT1=
EXTT2=
EXTT3=
EXTT4=
EXTT5=
PLAYORDER=
